<?xml version="1.0" encoding="iso-8859-1"?>
<!-- Uploaded to: SVG Repo, www.svgrepo.com, Generator: SVG Repo Mixer Tools -->
<svg height="800px" width="800px" version="1.1" id="Layer_1" xmlns="http://www.w3.org/2000/svg" xmlns:xlink="http://www.w3.org/1999/xlink" 
	 viewBox="0 0 507.2 507.2" xml:space="preserve">
<path style="fill:#FFC52F;" d="M416.4,122h-66.8v33.6h1.2c11.6,4.4,20,16,20,29.2c0,17.2-14,31.2-31.2,31.2s-31.2-14.4-31.2-31.6
	c0-13.6,8-26,20-30h-3.6v-32h-148v3.6v29.6h0.8c11.6,4.4,20,16,20,29.2c0,17.2-14,31.2-31.2,31.2s-31.2-14.4-31.2-31.6
	c0-13.6,9.2-26,21.2-30h0.4V126v-4H90.4L66,446h373.6L416.4,122z"/>
<g>
	<path style="fill:#EF934A;" d="M167.6,190.8c-5.6,0-10-4.8-10-10.4V150h-0.4c-12,4-20.8,16.4-20.8,30c0,17.2,14,31.6,31.2,31.6
		s31.2-13.6,31.2-31.2c0-13.2-8.4-24.4-20-29.2H178v29.2C177.6,186.4,173.2,190.8,167.6,190.8z"/>
	<path style="fill:#EF934A;" d="M337.6,190.8c-5.6,0-12-4.8-12-10.4V150h3.6c-12,4-20.4,16.4-20.4,30c0,17.2,14,31.6,31.2,31.6
		s31.2-13.6,31.2-31.2c0-13.2-8.8-24.4-20.4-29.2h-1.2v29.2C349.6,186.4,343.2,190.8,337.6,190.8z"/>
</g>
<path style="fill:#F0C960;" d="M253.6,4c-53.2,0-96,43.6-96,96.8v79.6c0,5.6,4.4,10.4,10,10.4s10-4.8,10-10.4v-79.6
	c0-42,32-76,74-76s74,34,74,76v79.6c0,5.6,6.4,10.4,12,10.4s12-4.8,12-10.4v-79.6C349.6,47.6,306.8,4,253.6,4z"/>
<circle style="fill:#DF5C4E;" cx="253.6" cy="392.4" r="111.6"/>
<path d="M157.6,452H66.8c-1.2,0-2-0.4-2.8-1.2c-0.8-0.8-1.2-2-1.2-3.2l24.4-324c0-2,2-3.6,4-3.6H150c2.4,0,4,1.6,4,4s-1.6,4-4,4
	H95.2L71.6,444h86.8c2.4,0,4,1.6,4,4S160,452,157.6,452z"/>
<path d="M440.4,452h-90.8c-2.4,0-4-1.6-4-4s1.6-4,4-4H436l-23.6-316h-62.8c-2.4,0-4-1.6-4-4s1.6-4,4-4H416c2,0,4,1.6,4,3.6l24.4,324
	c0,1.2-0.4,2.4-1.2,3.2C442.4,451.6,441.6,452,440.4,452z"/>
<path d="M321.6,128h-144c-2.4,0-4-1.6-4-4s1.6-4,4-4h144c2.4,0,4,1.6,4,4S324,128,321.6,128z"/>
<path d="M337.6,194.8c-8,0-14-6.4-14-14.4v-79.6c0-39.2-34.8-72-76-72c-38.8,0-68,31.2-68,72v79.6c0,8-6,14.4-14,14.4
	s-14-6.4-14-14.4v-79.6c0-57.6,41.2-100.8,96-100.8c56.4,0,104,46,104,100.8v79.6C351.6,188.4,345.6,194.8,337.6,194.8z M247.6,20.8
	c45.6,0,84,36.8,84,80v79.6c0,3.6,2.4,6.4,6,6.4s6-2.8,6-6.4v-79.6c0-50.4-44-92.8-96-92.8c-50,0-88,40-88,92.8v79.6
	c0,3.6,2.4,6.4,6,6.4s6-2.8,6-6.4v-79.6C171.6,55.2,204.4,20.8,247.6,20.8z"/>
<path d="M167.2,215.6c-19.2,0-35.2-15.6-35.2-35.2c0-12.4,6.8-24.4,17.6-30.4c2-1.2,4.4-0.4,5.6,1.6c1.2,2,0.4,4.4-1.6,5.6
	c-8.4,4.8-13.6,14-13.6,23.6c0,14.8,12,27.2,27.2,27.2c14.8,0,27.2-12,27.2-27.2c0-11.2-6.8-21.2-17.2-25.2c-2-0.8-3.2-3.2-2.4-5.2
	s3.2-3.2,5.2-2.4c13.6,5.2,22.4,18.4,22.4,32.8C202,200,186.4,215.6,167.2,215.6z"/>
<path d="M340,215.6c-19.2,0-35.2-15.6-35.2-35.2c0-12.8,6.8-24.4,18-30.8c2-1.2,4.4-0.4,5.6,1.6c1.2,2,0.4,4.4-1.6,5.6
	c-8.8,4.8-14,14-14,23.6c0,14.8,12,27.2,27.2,27.2s27.2-12,27.2-27.2c0-11.2-6.8-21.2-17.2-25.2c-2-0.8-3.2-3.2-2.4-5.2
	s3.2-3.2,5.2-2.4c13.6,5.2,22.4,18.4,22.4,32.8C375.2,200,359.2,215.6,340,215.6z"/>
<path d="M145.6,432h-76c-2.4,0-4-1.6-4-4s1.6-4,4-4h76c2.4,0,4,1.6,4,4S148,432,145.6,432z"/>
<path d="M401.6,432h-40c-2.4,0-4-1.6-4-4s1.6-4,4-4h40c2.4,0,4,1.6,4,4S404,432,401.6,432z"/>
<path d="M253.6,507.2c-63.2,0-114.8-51.6-114.8-114.8s51.6-114.8,114.8-114.8s114.8,51.6,114.8,114.8S316.8,507.2,253.6,507.2z
	 M253.6,285.2c-58.8,0-106.8,48-106.8,106.8s48,106.8,106.8,106.8s106.8-48,106.8-106.8S312.4,285.2,253.6,285.2z"/>
<path d="M290.4,436.4c-1.2,0-2-0.4-2.8-1.2L212.4,360c-1.6-1.6-1.6-4,0-5.6s4-1.6,5.6,0l75.2,75.2c1.6,1.6,1.6,4,0,5.6
	C292.4,436,291.6,436.4,290.4,436.4z"/>
<path d="M215.2,436.4c-1.2,0-2-0.4-2.8-1.2c-1.6-1.6-1.6-4,0-5.6l75.2-75.2c1.6-1.6,4-1.6,5.6,0s1.6,4,0,5.6L218,435.2
	C217.2,436,216.4,436.4,215.2,436.4z"/>
</svg>