<svg xmlns="http://www.w3.org/2000/svg" version="1.0" width="423.000000pt" height="417.000000pt" viewBox="0 0 423.000000 417.000000" preserveAspectRatio="xMidYMid meet">

<g transform="translate(0.000000,417.000000) scale(0.100000,-0.100000)" fill="#000000" stroke="none">
<path d="M1918 4163 c12 -2 32 -2 45 0 12 2 2 4 -23 4 -25 0 -35 -2 -22 -4z"/>
<path d="M2278 4163 c12 -2 30 -2 40 0 9 3 -1 5 -23 4 -22 0 -30 -2 -17 -4z"/>
<path d="M1880 4095 c-449 -56 -862 -257 -1180 -575 -784 -784 -784 -2056 0 -2840 600 -600 1520 -760 2279 -395 223 108 394 228 561 395 656 656 777 1672 294 2469 -403 663 -1183 1041 -1954 946z m438 -86 c384 -42 743 -194 1037 -441 431 -360 685 -905 685 -1468 0 -563 -254 -1108 -685 -1468 -582 -487 -1382 -589 -2064 -261 -1045 502 -1412 1810 -778 2778 395 601 1099 938 1805 860z"/>
<path d="M1938 3979 c-203 -20 -436 -84 -623 -173 -202 -96 -343 -194 -503 -350 -178 -173 -283 -318 -387 -531 -256 -526 -256 -1124 0 -1650 104 -213 209 -358 387 -531 160 -156 301 -254 503 -350 627 -298 1370 -223 1935 194 89 66 260 230 335 322 184 226 324 522 384 815 112 544 -33 1134 -384 1565 -75 92 -246 256 -335 322 -380 280 -849 412 -1312 367z m351 -44 c316 -21 678 -161 951 -368 78 -59 242 -219 311 -303 534 -652 549 -1607 36 -2284 -59 -78 -219 -242 -303 -311 -652 -534 -1607 -549 -2284 -36 -78 59 -242 219 -311 303 -548 669 -548 1659 0 2328 69 84 233 244 311 303 285 215 641 349 994 372 61 5 134 6 161 5 28 -2 88 -6 134 -9z"/>
<path d="M1503 2783 c-8 -21 5 -30 57 -37 35 -5 60 -15 83 -36 l32 -28 0 -719 c0 -395 -3 -730 -8 -745 -9 -33 -34 -48 -107 -63 -42 -8 -56 -15 -58 -30 -3 -20 5 -20 393 -20 l395 0 0 22 c0 24 -9 26 -120 37 -65 7 -101 30 -117 77 -8 23 -12 134 -12 357 l-1 322 60 0 c178 0 261 -70 307 -257 13 -53 19 -63 38 -63 l21 0 -3 338 -4 337 -22 3 c-20 3 -25 -4 -36 -46 -30 -118 -98 -218 -168 -248 -19 -8 -67 -14 -113 -14 l-80 0 0 340 c0 375 3 400 57 421 17 7 85 9 178 7 125 -3 158 -7 196 -25 110 -50 178 -171 226 -408 7 -33 13 -41 34 -43 l26 -3 -1 153 c0 84 1 204 4 266 l5 113 -629 3 c-493 1 -629 -1 -633 -11z"/>
<path d="M56 2363 c-3 -16 -8 -93 -10 -173 l-5 -145 9 130 c5 72 11 149 15 173 7 47 1 57 -9 15z"/>
<path d="M4185 2130 c0 -96 -3 -213 -7 -260 -4 -60 -3 -73 3 -45 26 118 31 167 25 280 -11 200 -21 212 -21 25z"/>
<path d="M4161 1764 c0 -11 3 -14 6 -6 3 7 2 16 -1 19 -3 4 -6 -2 -5 -13z"/>
<path d="M4151 1704 c0 -11 3 -14 6 -6 3 7 2 16 -1 19 -3 4 -6 -2 -5 -13z"/>
<path d="M4111 1534 c0 -11 3 -14 6 -6 3 7 2 16 -1 19 -3 4 -6 -2 -5 -13z"/>
</g>
</svg>