<svg stroke="#656565" stroke-width="2%" fill="#656565" height='20' width='14' className="SVGInline-svg wrapper-icon-svg" xmlns="http://www.w3.org/2000/svg" viewBox="0 0 23.78 23.77"><path d="M23.78,12.26a3.38,3.38,0,0,0-1.12-2.51,3.4,3.4,0,0,0-2.08-1.08,3.21,3.21,0,0,0,1-2.27,3.39,3.39,0,0,0-1.08-2.58,3,3,0,0,0-2.53-1,3.33,3.33,0,0,0-2.13.64,3.94,3.94,0,0,0-1-2.41,3.25,3.25,0,0,0-2.5-1A3.41,3.41,0,0,0,9.78,1.05a4.74,4.74,0,0,0-1,2.11,3.13,3.13,0,0,0-2.52-1,3.05,3.05,0,0,0-2.5,1,3.6,3.6,0,0,0-.21,4.74A3.08,3.08,0,0,0,1.15,9,3.16,3.16,0,0,0,0,11.41a3.27,3.27,0,0,0,1.08,2.47A3.14,3.14,0,0,0,3.28,15l-.06.07a3.08,3.08,0,0,0-1.1,2.5A3.16,3.16,0,0,0,3.2,20.07a3.07,3.07,0,0,0,2.53,1A3.45,3.45,0,0,0,8,20.37a3.87,3.87,0,0,0,1.11,2.4,3.5,3.5,0,0,0,2.5,1,3.38,3.38,0,0,0,2.42-1,4.41,4.41,0,0,0,1.1-2.09,3,3,0,0,0,2.32.89,2.85,2.85,0,0,0,2.5-1.11,3.22,3.22,0,0,0,1-2.4,3.83,3.83,0,0,0-.72-2.24,3.21,3.21,0,0,0,2.48-1,3.54,3.54,0,0,0,1.11-2.51Zm-6.54,2.17a3.5,3.5,0,0,0-2.33,1,3.62,3.62,0,0,0-1.09,2.19,3.13,3.13,0,0,0-2.25-1,3.48,3.48,0,0,0-2.34.77,3.21,3.21,0,0,0-1-2.25A2.84,2.84,0,0,0,6,14l.1-.1a3.35,3.35,0,0,0,.21-4.71,3.51,3.51,0,0,0,2.41-1,3.47,3.47,0,0,0,1.09-2.1h0a4,4,0,0,0,2.46,1.09,3.07,3.07,0,0,0,2.12-.7,3.41,3.41,0,0,0,1,2.32A3.17,3.17,0,0,0,17.53,9.9a3.24,3.24,0,0,0-1,2.26,4.23,4.23,0,0,0,.69,2.27Zm.7-10.59a2,2,0,0,1,1.75.7,2.42,2.42,0,0,1,.8,1.86,2.23,2.23,0,0,1-.84,1.69,2,2,0,0,1-1.71.76,2.16,2.16,0,0,1-1.75-.8,2.33,2.33,0,0,1-.69-1.64,2.66,2.66,0,0,1,.72-1.9,2,2,0,0,1,1.72-.66ZM10.56,1.77a2.35,2.35,0,0,1,1.75-.7A2.18,2.18,0,0,1,14,1.73a2.94,2.94,0,0,1,.73,1.85,1.6,1.6,0,0,1-.63,1.64.49.49,0,0,0-.13.12,1.85,1.85,0,0,1-1.69.74,3,3,0,0,1-1.72-.77,3.44,3.44,0,0,1-.82-1.69,3.61,3.61,0,0,1,.79-1.85Zm-6,2.09A2,2,0,0,1,6.26,3.2,2.11,2.11,0,0,1,8,3.93a2.16,2.16,0,0,1,.77,1.72A2.31,2.31,0,0,1,8,7.4a2.64,2.64,0,0,1-3.46,0,2.68,2.68,0,0,1-.73-1.79,2.45,2.45,0,0,1,.73-1.79Zm-2.69,9.3a2.31,2.31,0,0,1-.8-1.75,2.22,2.22,0,0,1,.83-1.69A2.15,2.15,0,0,1,3.61,9a2.08,2.08,0,0,1,1.75.7,2.55,2.55,0,0,1,.8,1.86,2.5,2.5,0,0,1-.8,1.64,2.44,2.44,0,0,1-1.75.8,2.16,2.16,0,0,1-1.75-.8ZM5.73,20A2.11,2.11,0,0,1,4,19.31a2.16,2.16,0,0,1-.77-1.72A2,2,0,0,1,4,15.86a.45.45,0,0,0,.09-.1A1.85,1.85,0,0,1,5.73,15a2.06,2.06,0,0,1,1.75.8,2.27,2.27,0,0,1,.69,1.75,2.48,2.48,0,0,1-.72,1.79A2.23,2.23,0,0,1,5.73,20Zm7.48,2a2.36,2.36,0,0,1-1.64.7A2.43,2.43,0,0,1,9.85,22,2.67,2.67,0,0,1,9,20.2a2,2,0,0,1,.7-1.8,2.37,2.37,0,0,1,1.85-.7,2.2,2.2,0,0,1,1.68.83,2.35,2.35,0,0,1,.86,1.52,3.39,3.39,0,0,1-.9,2Zm5.88-2.28a1.85,1.85,0,0,1-1.69.74,1.86,1.86,0,0,1-1.69-.74l-.09-.1A1.92,1.92,0,0,1,14.86,18a2.5,2.5,0,0,1,.8-1.86,2.54,2.54,0,0,1,3.46,0,2.94,2.94,0,0,1,.73,1.9,2.35,2.35,0,0,1-.75,1.72Zm1.07-5a2.66,2.66,0,0,1-1.82-.55,3.25,3.25,0,0,1-.73-2,2.31,2.31,0,0,1,.8-1.65,2.24,2.24,0,0,1,1.65-.8,2.38,2.38,0,0,1,1.85.8,2.31,2.31,0,0,1,.8,1.75,2.52,2.52,0,0,1-.8,1.76,2.22,2.22,0,0,1-1.75.7Z"></path></svg>