<svg xmlns="http://www.w3.org/2000/svg" width="140" height="140" viewBox="0 0 140 140" fill="none">
    <g clip-path="url(#clip0_1673_30064)">
        <path d="M95.2686 120.404C84.8072 147.282 30.7214 127.892 22.6115 101.518C11.5135 74.2047 15.6692 31.3486 30.7604 18.941C57.7685 -6.5617 72.7571 21.089 111.234 55.8728C133.606 76.0975 104.734 93.0284 95.2686 120.404Z" fill="#B8B7FF" fill-opacity="0.1"/>
        <path d="M87.097 110.991H73.0843H59.0716C54.279 110.991 49.6826 109.023 46.2937 105.52C42.9048 102.017 41.001 97.2653 41.001 92.311V79.5998V66.8886V41.4661M41.001 41.4661L41.0063 41.4605H105.168V66.883V79.5943M41.001 41.4661L55.7569 41.4605M55.7569 41.4605H90.4171V28.0695C90.4171 23.319 88.5916 18.7631 85.342 15.404C82.0925 12.0448 77.6852 10.1577 73.0897 10.1577C70.8137 10.157 68.56 10.6198 66.4571 11.5196C64.3542 12.4194 62.4434 13.7387 60.8338 15.402C59.2243 17.0653 57.9475 19.0402 57.0763 21.2137C56.2052 23.3872 55.7569 25.7168 55.7569 28.0695V41.4605Z" stroke="#151542" stroke-width="2" stroke-linecap="round" stroke-linejoin="round"/>
        <path d="M44.0058 45.1577H102.001V91.4959C102.002 93.6837 101.58 95.8503 100.759 97.8717C99.9384 99.8932 98.7354 101.73 97.2186 103.277C95.7018 104.825 93.9009 106.052 91.9189 106.889C89.9368 107.727 87.8124 108.158 85.667 108.158H60.3349C56.0029 108.158 51.8483 106.403 48.7851 103.279C45.7219 100.155 44.001 95.9185 44.001 91.5008V45.1626L44.0058 45.1577Z" fill="white"/>
        <path d="M62.001 102.672C58.5532 102.672 55.2466 101.302 52.8086 98.8643C50.3706 96.4263 49.001 93.1197 49.001 89.6719" stroke="#0066FF" stroke-width="2" stroke-linecap="round" stroke-linejoin="round"/>
        <path d="M66.001 102.672H67.501" stroke="#0066FF" stroke-width="2" stroke-linecap="round"/>
        <path d="M105 114.482C112.732 114.482 119 108.214 119 100.482C119 92.7499 112.732 86.4819 105 86.4819C97.268 86.4819 91 92.7499 91 100.482C91 108.214 97.268 114.482 105 114.482Z" fill="#151542" stroke="#151542" stroke-width="2" stroke-linecap="round" stroke-linejoin="round"/>
        <path d="M105 107.258C105.552 107.258 106 106.811 106 106.258C106 105.706 105.552 105.258 105 105.258C104.448 105.258 104 105.706 104 106.258C104 106.811 104.448 107.258 105 107.258Z" fill="white"/>
        <path d="M105 102.182V94.1821" stroke="white" stroke-width="2" stroke-linecap="round" stroke-linejoin="round"/>
    </g>
    <defs>
        <clipPath id="clip0_1673_30064">
            <rect width="140" height="140" fill="white"/>
        </clipPath>
    </defs>
</svg>