<svg stroke="#656565" stroke-width="2%" fill="#656565" width="14" height="20" className="SVGInline-svg wrapper-icon-svg" xmlns="http://www.w3.org/2000/svg" viewBox="0 0 15.22 23.58"><path d="M7.61,22a.45.45,0,0,1-.27-.12l-3.62-4a.38.38,0,0,1-.07-.43l3.62-7.8a.35.35,0,0,1,.34-.22A.38.38,0,0,1,8,9.67l3.71,7.8a.39.39,0,0,1-.06.45l-3.72,4a.39.39,0,0,1-.27.11ZM4.45,17.58,7.61,21l3.27-3.46L7.61,10.74Z"></path><path d="M7.71,23.58H7.62c-2.6-.5-4.27-1.65-5-3.4C1.53,17.29,3,12.93,7.2,6.85a.51.51,0,0,1,.71-.11A.57.57,0,0,1,8,6.85c4.21,6.14,5.73,10.52,4.61,13.38C12,22,10.33,23.08,7.8,23.57ZM7.61,8.05c-3.61,5.39-5,9.33-4,11.72.54,1.39,1.93,2.32,4.12,2.75,2.14-.43,3.45-1.31,4-2.69.93-2.39-.45-6.35-4.09-11.78Z"></path><path d="M7.65,3A14,14,0,0,1,.18.72.4.4,0,0,1,.05.19.37.37,0,0,1,.56.05h0C5.29,3,10,3,14.64.06a.37.37,0,0,1,.52.12h0A.4.4,0,0,1,15,.72,13.64,13.64,0,0,1,7.65,3Z"></path><path d="M7.71,7.12A2.17,2.17,0,0,1,6,6.38a2.17,2.17,0,0,1-.62-1.52A3.17,3.17,0,0,1,6,3.2a.35.35,0,0,1,.1-.11,2.49,2.49,0,0,1,1.63-.6,2.19,2.19,0,0,1,1.47.63A2.74,2.74,0,0,1,9.9,4.85a1.89,1.89,0,0,1-.72,1.53,1.9,1.9,0,0,1-1.47.73ZM6.59,3.67a2.21,2.21,0,0,0-.41,1.19,1.32,1.32,0,0,0,.39,1,1.45,1.45,0,0,0,1.14.51,1.22,1.22,0,0,0,.9-.47l.08-.08a1.08,1.08,0,0,0,.45-.93,1.81,1.81,0,0,0-.52-1.21,1.46,1.46,0,0,0-.91-.38A1.69,1.69,0,0,0,6.59,3.67Z"></path></svg>