<svg xmlns="http://www.w3.org/2000/svg" width="141" height="140" fill="none" alt="search" style="cursor: pointer;"><g clip-path="url(#Illustartions_svg__a)"><path fill="#B8B7FF" fill-opacity="0.1" d="M26.423 117.394c27.116 25.605 56.841 5.541 86.844-26.232 30.002-31.774 8.947-35.335-18.17-60.94C67.982 4.617 34.025-2.75 19.82 46.343 5.74 95.008.614 82.567 26.423 117.394"></path><path stroke="#151542" stroke-linecap="round" stroke-width="2" d="M109.409 84.317c-7.381 7.448-18.168 12.627-29.481 12.627a40.54 40.54 0 0 1-23.43-7.41m52.911-5.217 22.092 22.065m-22.092-22.065c.036.019-.03-.03 0 0Zm0 0c6.969-7.31 11.248-17.206 11.248-28.102 0-22.494-18.235-40.73-40.73-40.73-21.33 0-38.832 16.4-40.584 37.278"></path><ellipse cx="80" cy="55.986" fill="#fff" rx="37.5" ry="36.5"></ellipse><path stroke="#06F" stroke-linecap="round" stroke-linejoin="round" stroke-width="2" d="M110.5 58v-2"></path><path stroke="#06F" stroke-linecap="round" stroke-width="2" d="M110.341 51C108.914 37.6 98.035 27.026 84.5 26.07"></path><path fill="#151542" stroke="#151542" stroke-linecap="round" stroke-linejoin="round" stroke-width="2" d="M44.5 87c7.732 0 14-6.268 14-14s-6.268-14-14-14-14 6.268-14 14 6.268 14 14 14"></path><path stroke="#fff" stroke-linecap="round" stroke-linejoin="round" stroke-width="1.5" d="m51.662 65.569.049 5.335-5.087-1.702"></path><path stroke="#fff" stroke-linecap="round" stroke-linejoin="round" stroke-width="1.5" d="M51.934 74a7.5 7.5 0 1 1-.234-3.1"></path></g><defs><clipPath id="Illustartions_svg__a"><path fill="#fff" d="M.5 0h140v140H.5z"></path></clipPath></defs></svg>