<svg xmlns="http://www.w3.org/2000/svg" width="16" height="16" fill="none" class="cui-composed-info-icon basic-cui-composed-info-icon"><g clip-path="url(#Info_svg__a)"><path fill="#151542" fill-rule="evenodd" d="M8 1.5a6.5 6.5 0 1 0 0 13 6.5 6.5 0 0 0 0-13M.5 8a7.5 7.5 0 1 1 15 0 7.5 7.5 0 0 1-15 0M8 5.5a1 1 0 1 0 0-2 1 1 0 0 0 0 2m.5 2a.5.5 0 0 0-1 0v4a.5.5 0 0 0 1 0z" class="Info_svg__fill" clip-rule="evenodd"></path></g><defs><clipPath id="Info_svg__a"><path fill="#fff" d="M0 0h16v16H0z"></path></clipPath></defs></svg>